<svg width="64" height="64" viewBox="0 0 64 64" fill="none" xmlns="http://www.w3.org/2000/svg">
<path fill-rule="evenodd" clip-rule="evenodd" d="M28.401 26.0233C22.5144 25.7002 19.245 25.785 13.4886 26.5801C12.847 20.004 13.6918 16.7399 17.0868 11.5824C15.3526 16.0824 15.017 20.4263 15.9369 24.13C20.9237 24.1003 23.616 24.3235 28.401 24.7611L28.6235 24.13C24.8612 22.0974 22.7774 20.9929 20.648 20.5661C19.8567 11.3892 20.5646 6.75309 25.5075 0.111369C22.5564 8.07579 22.096 12.2029 23.2447 19.007L29.4025 23.3132L29.8848 22.7564L28.2526 21.0116C29.1102 19.6932 29.7703 19.2357 31.1089 18.6728C30.64 19.1958 30.4506 19.6256 30.2186 20.7888C30.514 21.4161 30.7186 21.5917 31.1089 21.7912H33.5572C34.1043 21.6009 34.3293 21.4207 34.633 21.0116C34.9031 20.5491 34.7302 20.0366 33.8541 18.6728C34.9918 19.2114 35.6229 19.584 36.6732 21.0116L35.0781 22.7564L35.5975 23.3505L41.7182 19.0812C42.7027 12.1258 42.6044 8.0549 39.4184 0C45.3054 8.8065 44.9784 12.8465 44.4439 19.4526C44.4136 19.8274 44.3826 20.2105 44.352 20.6032C42.4356 20.9694 40.6181 21.8142 36.2651 24.2784L36.562 24.7611C41.1199 24.2029 43.8871 24.1034 49.0631 24.167C50.0905 20.1555 49.4844 17.1833 47.9131 11.5824C51.3899 17.2211 52.1715 20.5009 51.5115 26.5801C45.321 25.616 42.13 25.6339 36.562 25.9117L36.4137 26.4687C42.9888 27.1291 56 30.5152 56 30.5152C54.1355 46.6304 49.5792 52.2704 42.7252 60.7543C41.8914 61.7862 41.024 62.8601 40.123 64C40.6199 63.2044 41.1022 62.4394 41.5703 61.6974C47.0952 52.9379 50.6045 47.3744 51.5857 32.2599C46.326 30.2076 42.7881 29.144 35.9685 27.3226L35.7458 27.6937C42.0962 30.7537 45.62 32.4543 48.5067 34.0789C48.0596 45.2148 45.8225 49.6045 42.1595 56.792C41.955 57.193 41.746 57.603 41.5329 58.0232C41.6832 57.5987 41.8297 57.1883 41.9726 56.7884C44.0479 50.9803 45.3386 47.3682 45.6876 34.8957C42.1593 32.4842 39.9879 31.2416 36.7676 29.3985C36.3365 29.1519 35.8865 28.8943 35.4119 28.6218L35.2636 28.9189L40.3458 32.594C40.5514 36.3347 40.598 38.1369 40.3458 39.9071C39.1499 42.5221 37.3527 44.1903 32.5928 47.4431C29.3744 45.8544 27.6232 44.5 24.7285 40.0928C24.38 37.6587 24.3186 36.1193 24.5801 32.891C26.4207 31.1697 27.526 30.3079 29.6251 28.9559L29.4767 28.6589C25.255 30.9736 23.0398 32.3206 19.2755 34.7843C19.2717 46.1013 20.6674 50.6128 23.7269 57.9118C23.531 57.5809 23.3392 57.2584 23.1513 56.9426C19.6708 51.0941 17.5505 47.5311 16.4562 34.1532L29.1429 27.9164L28.8832 27.3226C28.7777 27.348 28.673 27.3732 28.5691 27.3984C22.3436 28.9041 18.7574 29.7714 13.4886 32.2969C15.1277 49.7603 18.5167 55.1267 24.9511 64C14.7865 53.6425 11.7978 47.4063 9 30.4779L28.5493 26.5428L28.401 26.0233ZM29.0684 30.1809C27.8326 31.201 27.1614 31.7903 26.0265 32.8908C25.9699 34.8653 26.0129 36.1278 26.3604 38.9417C28.0144 41.7522 29.4778 43.0403 32.5553 45.0671C35.8292 42.7533 37.4111 41.4351 38.4907 38.9417C38.8664 37.3351 38.9695 36.032 38.9358 32.8908L36.0053 30.1809L37.9713 33.0764C38.1091 35.103 38.0576 36.1867 37.5262 37.9394C35.899 40.4855 34.78 41.4302 32.5553 42.5799C30.2483 41.494 29.2051 40.4775 27.5846 38.2735C27.1217 36.7176 27.024 35.5705 26.9169 33.4105L29.0684 30.1809Z" fill="#B9001F"/>
</svg>
